<mxfile host="app.diagrams.net" modified="2024-06-11T14:04:21.487Z" agent="Mozilla/5.0 (Windows NT 10.0; Win64; x64) AppleWebKit/537.36 (KHTML, like Gecko) Chrome/125.0.0.0 Safari/537.36" etag="Za2v1jcPh4xDTu4ppr-m" version="24.5.2" type="github">
  <diagram name="Page-1" id="YHwTrwpui1WUX2zM5O42">
    <mxGraphModel dx="1434" dy="1838" grid="1" gridSize="10" guides="1" tooltips="1" connect="1" arrows="1" fold="1" page="1" pageScale="1" pageWidth="850" pageHeight="1100" math="0" shadow="0">
      <root>
        <mxCell id="0" />
        <mxCell id="1" parent="0" />
        <mxCell id="rmX3BGi-3fITCv1f9dis-1" value="LAND VALUATION GOVERMENT LEASING" style="swimlane;horizontal=0;whiteSpace=wrap;html=1;" vertex="1" parent="1">
          <mxGeometry x="75" y="-90" width="1610" height="1260" as="geometry" />
        </mxCell>
        <mxCell id="rmX3BGi-3fITCv1f9dis-2" value="APPLICANT" style="swimlane;horizontal=0;whiteSpace=wrap;html=1;" vertex="1" parent="rmX3BGi-3fITCv1f9dis-1">
          <mxGeometry x="22" y="30" width="1580" height="260" as="geometry" />
        </mxCell>
        <mxCell id="rmX3BGi-3fITCv1f9dis-8" value="" style="edgeStyle=orthogonalEdgeStyle;rounded=0;orthogonalLoop=1;jettySize=auto;html=1;" edge="1" parent="rmX3BGi-3fITCv1f9dis-2" source="rmX3BGi-3fITCv1f9dis-3" target="rmX3BGi-3fITCv1f9dis-4">
          <mxGeometry relative="1" as="geometry" />
        </mxCell>
        <mxCell id="rmX3BGi-3fITCv1f9dis-3" value="ENTER PARCEL DETAILS, DEVELOPMENT STATUS, DEVELOPMENT TYPE AND DESCRIPTION, LAND USER&lt;div&gt;ENTER LEASE DETAILS, ENTER CONTACT DETAILS&lt;/div&gt;" style="whiteSpace=wrap;html=1;" vertex="1" parent="rmX3BGi-3fITCv1f9dis-2">
          <mxGeometry x="260" y="35" width="250" height="130" as="geometry" />
        </mxCell>
        <mxCell id="rmX3BGi-3fITCv1f9dis-4" value="&lt;div style=&quot;&quot;&gt;&lt;span style=&quot;background-color: initial;&quot;&gt;&lt;font style=&quot;font-size: 10px;&quot;&gt;DOCUMENTS NEEDED:&lt;/font&gt;&lt;/span&gt;&lt;/div&gt;&lt;div&gt;&lt;ul&gt;&lt;li&gt;&lt;span id=&quot;docs-internal-guid-4d663203-7fff-78c6-eab6-bbc14cb6f304&quot;&gt;&lt;font style=&quot;font-size: 10px;&quot;&gt;&lt;span style=&quot;background-color: transparent; white-space-collapse: preserve; font-family: Arial, sans-serif;&quot;&gt;Ownership documents&lt;/span&gt;&lt;/font&gt;&lt;/span&gt;&lt;/li&gt;&lt;li&gt;&lt;span id=&quot;docs-internal-guid-4d663203-7fff-78c6-eab6-bbc14cb6f304&quot;&gt;&lt;font style=&quot;font-size: 10px;&quot;&gt;&lt;span style=&quot;background-color: transparent; white-space-collapse: preserve; font-family: Arial, sans-serif;&quot;&gt;Application letter&lt;/span&gt;&lt;/font&gt;&lt;/span&gt;&lt;/li&gt;&lt;li&gt;&lt;span id=&quot;docs-internal-guid-4d663203-7fff-78c6-eab6-bbc14cb6f304&quot;&gt;&lt;font style=&quot;font-size: 10px;&quot;&gt;&lt;span style=&quot;background-color: transparent; white-space-collapse: preserve; font-family: Arial, sans-serif;&quot;&gt;Rental assessment report&lt;/span&gt;&lt;/font&gt;&lt;/span&gt;&lt;/li&gt;&lt;li&gt;&lt;span id=&quot;docs-internal-guid-4d663203-7fff-78c6-eab6-bbc14cb6f304&quot;&gt;&lt;font style=&quot;font-size: 10px;&quot;&gt;&lt;span style=&quot;background-color: transparent; white-space-collapse: preserve; font-family: Arial, sans-serif;&quot;&gt;Letter of offer (not mandatory&lt;/span&gt;&lt;/font&gt;&lt;/span&gt;&lt;/li&gt;&lt;li&gt;&lt;span id=&quot;docs-internal-guid-4d663203-7fff-78c6-eab6-bbc14cb6f304&quot;&gt;&lt;font style=&quot;font-size: 10px;&quot;&gt;&lt;span style=&quot;background-color: transparent; white-space-collapse: preserve; font-family: Arial, sans-serif;&quot;&gt;P.V.L.P by building surveyor (not mandatory)&lt;/span&gt;&lt;/font&gt;&lt;/span&gt;&lt;/li&gt;&lt;/ul&gt;&lt;/div&gt;" style="shape=document;whiteSpace=wrap;html=1;boundedLbl=1;align=left;" vertex="1" parent="rmX3BGi-3fITCv1f9dis-2">
          <mxGeometry x="620" y="15" width="270" height="165" as="geometry" />
        </mxCell>
        <mxCell id="rmX3BGi-3fITCv1f9dis-7" style="edgeStyle=orthogonalEdgeStyle;rounded=0;orthogonalLoop=1;jettySize=auto;html=1;" edge="1" parent="rmX3BGi-3fITCv1f9dis-2" source="rmX3BGi-3fITCv1f9dis-6" target="rmX3BGi-3fITCv1f9dis-3">
          <mxGeometry relative="1" as="geometry" />
        </mxCell>
        <mxCell id="rmX3BGi-3fITCv1f9dis-6" value="START" style="ellipse;whiteSpace=wrap;html=1;aspect=fixed;" vertex="1" parent="rmX3BGi-3fITCv1f9dis-2">
          <mxGeometry x="70" y="60" width="80" height="80" as="geometry" />
        </mxCell>
        <mxCell id="rmX3BGi-3fITCv1f9dis-15" value="SUBMISSION" style="text;html=1;align=center;verticalAlign=middle;resizable=0;points=[];autosize=1;strokeColor=none;fillColor=none;" vertex="1" parent="rmX3BGi-3fITCv1f9dis-2">
          <mxGeometry x="760" y="165" width="100" height="30" as="geometry" />
        </mxCell>
        <mxCell id="rmX3BGi-3fITCv1f9dis-38" value="PAY VALUATION FEES" style="rhombus;whiteSpace=wrap;html=1;" vertex="1" parent="rmX3BGi-3fITCv1f9dis-2">
          <mxGeometry x="1100" y="77" width="120" height="105" as="geometry" />
        </mxCell>
        <mxCell id="rmX3BGi-3fITCv1f9dis-40" value="" style="points=[[0.145,0.145,0],[0.5,0,0],[0.855,0.145,0],[1,0.5,0],[0.855,0.855,0],[0.5,1,0],[0.145,0.855,0],[0,0.5,0]];shape=mxgraph.bpmn.event;html=1;verticalLabelPosition=bottom;labelBackgroundColor=#ffffff;verticalAlign=top;align=center;perimeter=ellipsePerimeter;outlineConnect=0;aspect=fixed;outline=end;symbol=terminate2;" vertex="1" parent="rmX3BGi-3fITCv1f9dis-2">
          <mxGeometry x="1136.38" width="46.62" height="46.62" as="geometry" />
        </mxCell>
        <mxCell id="rmX3BGi-3fITCv1f9dis-139" value="" style="edgeStyle=orthogonalEdgeStyle;rounded=0;orthogonalLoop=1;jettySize=auto;html=1;entryX=0.5;entryY=1;entryDx=0;entryDy=0;entryPerimeter=0;" edge="1" parent="rmX3BGi-3fITCv1f9dis-2" source="rmX3BGi-3fITCv1f9dis-38" target="rmX3BGi-3fITCv1f9dis-40">
          <mxGeometry relative="1" as="geometry" />
        </mxCell>
        <mxCell id="rmX3BGi-3fITCv1f9dis-142" value="TRUE" style="text;html=1;align=center;verticalAlign=middle;resizable=0;points=[];autosize=1;strokeColor=none;fillColor=none;" vertex="1" parent="rmX3BGi-3fITCv1f9dis-2">
          <mxGeometry x="1153" y="220" width="60" height="30" as="geometry" />
        </mxCell>
        <mxCell id="rmX3BGi-3fITCv1f9dis-9" value="SYSTEM" style="swimlane;horizontal=0;whiteSpace=wrap;html=1;" vertex="1" parent="rmX3BGi-3fITCv1f9dis-1">
          <mxGeometry x="25" y="290" width="1574" height="260" as="geometry" />
        </mxCell>
        <mxCell id="rmX3BGi-3fITCv1f9dis-10" value="VALIDATES" style="rhombus;whiteSpace=wrap;html=1;" vertex="1" parent="rmX3BGi-3fITCv1f9dis-9">
          <mxGeometry x="685" y="75" width="140" height="120" as="geometry" />
        </mxCell>
        <mxCell id="rmX3BGi-3fITCv1f9dis-21" value="TRUE" style="text;html=1;align=center;verticalAlign=middle;resizable=0;points=[];autosize=1;strokeColor=none;fillColor=none;" vertex="1" parent="rmX3BGi-3fITCv1f9dis-9">
          <mxGeometry x="755" y="218" width="60" height="30" as="geometry" />
        </mxCell>
        <mxCell id="rmX3BGi-3fITCv1f9dis-37" value="&lt;u&gt;&lt;b&gt;system generates&lt;/b&gt;:&lt;/u&gt;&lt;div&gt;Valuation certificate&lt;/div&gt;&lt;div&gt;Valuation fees&lt;/div&gt;" style="rounded=0;whiteSpace=wrap;html=1;" vertex="1" parent="rmX3BGi-3fITCv1f9dis-9">
          <mxGeometry x="1064" y="60" width="190" height="80" as="geometry" />
        </mxCell>
        <mxCell id="rmX3BGi-3fITCv1f9dis-135" value="&lt;u&gt;&lt;b&gt;OUTPUT DOCUMENTS&lt;/b&gt;&lt;/u&gt;&lt;div&gt;VALUATION CERTIFICATE&lt;/div&gt;" style="shape=note;whiteSpace=wrap;html=1;backgroundOutline=1;darkOpacity=0.05;" vertex="1" parent="rmX3BGi-3fITCv1f9dis-9">
          <mxGeometry x="1384" y="37.5" width="140" height="125" as="geometry" />
        </mxCell>
        <mxCell id="rmX3BGi-3fITCv1f9dis-11" value="" style="edgeStyle=orthogonalEdgeStyle;rounded=0;orthogonalLoop=1;jettySize=auto;html=1;exitX=0.5;exitY=0.842;exitDx=0;exitDy=0;exitPerimeter=0;entryX=0.5;entryY=0;entryDx=0;entryDy=0;" edge="1" parent="rmX3BGi-3fITCv1f9dis-1" source="rmX3BGi-3fITCv1f9dis-4" target="rmX3BGi-3fITCv1f9dis-10">
          <mxGeometry relative="1" as="geometry">
            <mxPoint x="774.5" y="165" as="sourcePoint" />
            <mxPoint x="774.5" y="255" as="targetPoint" />
            <Array as="points" />
          </mxGeometry>
        </mxCell>
        <mxCell id="rmX3BGi-3fITCv1f9dis-16" value="DLV" style="swimlane;horizontal=0;whiteSpace=wrap;html=1;" vertex="1" parent="rmX3BGi-3fITCv1f9dis-1">
          <mxGeometry x="25" y="550" width="1580" height="370" as="geometry" />
        </mxCell>
        <mxCell id="rmX3BGi-3fITCv1f9dis-32" style="edgeStyle=orthogonalEdgeStyle;rounded=0;orthogonalLoop=1;jettySize=auto;html=1;" edge="1" parent="rmX3BGi-3fITCv1f9dis-16" source="rmX3BGi-3fITCv1f9dis-19" target="rmX3BGi-3fITCv1f9dis-31">
          <mxGeometry relative="1" as="geometry" />
        </mxCell>
        <mxCell id="rmX3BGi-3fITCv1f9dis-19" value="CHECKS DETAILS&lt;br&gt;FORWARDS TO THE VALUER&lt;div&gt;CAN RETURN TO APPLICANT&lt;/div&gt;" style="rounded=0;whiteSpace=wrap;html=1;" vertex="1" parent="rmX3BGi-3fITCv1f9dis-16">
          <mxGeometry x="680" y="50" width="180" height="90" as="geometry" />
        </mxCell>
        <mxCell id="rmX3BGi-3fITCv1f9dis-26" value="&lt;ul&gt;&lt;li&gt;&lt;span style=&quot;background-color: initial;&quot;&gt;SELECT IF THE APPLICANT IS EXEMPTED FROM PAYING THE VALUATION FEE&lt;/span&gt;&lt;br&gt;&lt;/li&gt;&lt;li&gt;INPUTS FINAL VALUE&lt;/li&gt;&lt;/ul&gt;&lt;div&gt;&lt;br&gt;&lt;/div&gt;&lt;ul&gt;&lt;li&gt;APPROVES WITH SIGNATURE&lt;/li&gt;&lt;/ul&gt;" style="rounded=0;whiteSpace=wrap;html=1;align=left;" vertex="1" parent="rmX3BGi-3fITCv1f9dis-16">
          <mxGeometry x="1020" y="50" width="295" height="130" as="geometry" />
        </mxCell>
        <mxCell id="rmX3BGi-3fITCv1f9dis-31" value="application stalls" style="points=[[0.145,0.145,0],[0.5,0,0],[0.855,0.145,0],[1,0.5,0],[0.855,0.855,0],[0.5,1,0],[0.145,0.855,0],[0,0.5,0]];shape=mxgraph.bpmn.event;html=1;verticalLabelPosition=bottom;labelBackgroundColor=#ffffff;verticalAlign=top;align=center;perimeter=ellipsePerimeter;outlineConnect=0;aspect=fixed;outline=end;symbol=terminate2;" vertex="1" parent="rmX3BGi-3fITCv1f9dis-16">
          <mxGeometry x="380" y="67.75" width="53.25" height="53.25" as="geometry" />
        </mxCell>
        <mxCell id="rmX3BGi-3fITCv1f9dis-17" style="edgeStyle=orthogonalEdgeStyle;rounded=0;orthogonalLoop=1;jettySize=auto;html=1;entryX=0.5;entryY=1;entryDx=0;entryDy=0;" edge="1" parent="rmX3BGi-3fITCv1f9dis-1" source="rmX3BGi-3fITCv1f9dis-10" target="rmX3BGi-3fITCv1f9dis-3">
          <mxGeometry relative="1" as="geometry" />
        </mxCell>
        <mxCell id="rmX3BGi-3fITCv1f9dis-20" style="edgeStyle=orthogonalEdgeStyle;rounded=0;orthogonalLoop=1;jettySize=auto;html=1;entryX=0.413;entryY=0;entryDx=0;entryDy=0;entryPerimeter=0;" edge="1" parent="rmX3BGi-3fITCv1f9dis-1" source="rmX3BGi-3fITCv1f9dis-10" target="rmX3BGi-3fITCv1f9dis-19">
          <mxGeometry relative="1" as="geometry" />
        </mxCell>
        <mxCell id="rmX3BGi-3fITCv1f9dis-22" value="VALUER" style="swimlane;horizontal=0;whiteSpace=wrap;html=1;" vertex="1" parent="rmX3BGi-3fITCv1f9dis-1">
          <mxGeometry x="25" y="920" width="1580" height="320" as="geometry" />
        </mxCell>
        <mxCell id="rmX3BGi-3fITCv1f9dis-24" value="ACTION:-&lt;div style=&quot;text-align: left;&quot;&gt;&lt;ul&gt;&lt;li&gt;ENTERS OFFICE REPORTS (at least 2, including final value report)&lt;/li&gt;&lt;li&gt;FILLS COMBINED REPORT&lt;/li&gt;&lt;li&gt;ENTER FIELDWORK(not mandatory)&lt;/li&gt;&lt;/ul&gt;&lt;/div&gt;&lt;div style=&quot;text-align: left;&quot;&gt;&lt;br&gt;&lt;/div&gt;&lt;div&gt;forwards to the DLV with SIGNATURE&lt;/div&gt;&lt;div&gt;&lt;br&gt;&lt;/div&gt;" style="rounded=0;whiteSpace=wrap;html=1;" vertex="1" parent="rmX3BGi-3fITCv1f9dis-22">
          <mxGeometry x="652.5" y="62" width="307.5" height="158" as="geometry" />
        </mxCell>
        <mxCell id="rmX3BGi-3fITCv1f9dis-33" value="" style="points=[[0.145,0.145,0],[0.5,0,0],[0.855,0.145,0],[1,0.5,0],[0.855,0.855,0],[0.5,1,0],[0.145,0.855,0],[0,0.5,0]];shape=mxgraph.bpmn.event;html=1;verticalLabelPosition=bottom;labelBackgroundColor=#ffffff;verticalAlign=top;align=center;perimeter=ellipsePerimeter;outlineConnect=0;aspect=fixed;outline=end;symbol=terminate2;" vertex="1" parent="rmX3BGi-3fITCv1f9dis-22">
          <mxGeometry x="373.7500000000001" y="117" width="46.25" height="46.25" as="geometry" />
        </mxCell>
        <mxCell id="rmX3BGi-3fITCv1f9dis-34" style="edgeStyle=orthogonalEdgeStyle;rounded=0;orthogonalLoop=1;jettySize=auto;html=1;entryX=1;entryY=0.5;entryDx=0;entryDy=0;entryPerimeter=0;" edge="1" parent="rmX3BGi-3fITCv1f9dis-22" source="rmX3BGi-3fITCv1f9dis-24" target="rmX3BGi-3fITCv1f9dis-33">
          <mxGeometry relative="1" as="geometry" />
        </mxCell>
        <mxCell id="rmX3BGi-3fITCv1f9dis-25" style="edgeStyle=orthogonalEdgeStyle;rounded=0;orthogonalLoop=1;jettySize=auto;html=1;" edge="1" parent="rmX3BGi-3fITCv1f9dis-1" source="rmX3BGi-3fITCv1f9dis-19">
          <mxGeometry relative="1" as="geometry">
            <mxPoint x="790" y="920" as="targetPoint" />
          </mxGeometry>
        </mxCell>
        <mxCell id="rmX3BGi-3fITCv1f9dis-27" style="edgeStyle=orthogonalEdgeStyle;rounded=0;orthogonalLoop=1;jettySize=auto;html=1;" edge="1" parent="rmX3BGi-3fITCv1f9dis-1" source="rmX3BGi-3fITCv1f9dis-24" target="rmX3BGi-3fITCv1f9dis-26">
          <mxGeometry relative="1" as="geometry">
            <mxPoint x="1180" y="680" as="targetPoint" />
          </mxGeometry>
        </mxCell>
        <mxCell id="rmX3BGi-3fITCv1f9dis-43" style="edgeStyle=orthogonalEdgeStyle;rounded=0;orthogonalLoop=1;jettySize=auto;html=1;entryX=0.5;entryY=1;entryDx=0;entryDy=0;" edge="1" parent="rmX3BGi-3fITCv1f9dis-1" source="rmX3BGi-3fITCv1f9dis-37" target="rmX3BGi-3fITCv1f9dis-38">
          <mxGeometry relative="1" as="geometry" />
        </mxCell>
        <mxCell id="rmX3BGi-3fITCv1f9dis-44" style="edgeStyle=orthogonalEdgeStyle;rounded=0;orthogonalLoop=1;jettySize=auto;html=1;entryX=0.537;entryY=1.038;entryDx=0;entryDy=0;entryPerimeter=0;" edge="1" parent="rmX3BGi-3fITCv1f9dis-1" source="rmX3BGi-3fITCv1f9dis-26" target="rmX3BGi-3fITCv1f9dis-37">
          <mxGeometry relative="1" as="geometry" />
        </mxCell>
        <mxCell id="rmX3BGi-3fITCv1f9dis-140" style="edgeStyle=orthogonalEdgeStyle;rounded=0;orthogonalLoop=1;jettySize=auto;html=1;entryX=0.5;entryY=0;entryDx=0;entryDy=0;entryPerimeter=0;" edge="1" parent="rmX3BGi-3fITCv1f9dis-1" source="rmX3BGi-3fITCv1f9dis-38" target="rmX3BGi-3fITCv1f9dis-135">
          <mxGeometry relative="1" as="geometry" />
        </mxCell>
        <mxCell id="rmX3BGi-3fITCv1f9dis-18" value="FALSE" style="text;html=1;align=center;verticalAlign=middle;resizable=0;points=[];autosize=1;strokeColor=none;fillColor=none;" vertex="1" parent="1">
          <mxGeometry x="500" y="348" width="60" height="30" as="geometry" />
        </mxCell>
        <mxCell id="rmX3BGi-3fITCv1f9dis-28" value="TRUE" style="text;html=1;align=center;verticalAlign=middle;resizable=0;points=[];autosize=1;strokeColor=none;fillColor=none;" vertex="1" parent="1">
          <mxGeometry x="850" y="748" width="60" height="30" as="geometry" />
        </mxCell>
        <mxCell id="rmX3BGi-3fITCv1f9dis-35" value="false" style="text;html=1;align=center;verticalAlign=middle;resizable=0;points=[];autosize=1;strokeColor=none;fillColor=none;" vertex="1" parent="1">
          <mxGeometry x="585" y="1028" width="50" height="30" as="geometry" />
        </mxCell>
        <mxCell id="rmX3BGi-3fITCv1f9dis-36" value="True" style="text;html=1;align=center;verticalAlign=middle;resizable=0;points=[];autosize=1;strokeColor=none;fillColor=none;" vertex="1" parent="1">
          <mxGeometry x="1125" y="998" width="50" height="30" as="geometry" />
        </mxCell>
        <mxCell id="rmX3BGi-3fITCv1f9dis-42" value="&lt;span style=&quot;background-color: rgb(255, 255, 255);&quot;&gt;application stalls&lt;/span&gt;" style="text;html=1;align=center;verticalAlign=middle;resizable=0;points=[];autosize=1;strokeColor=none;fillColor=none;" vertex="1" parent="1">
          <mxGeometry x="1108" y="18" width="110" height="30" as="geometry" />
        </mxCell>
        <mxCell id="rmX3BGi-3fITCv1f9dis-141" value="TRUE" style="text;html=1;align=center;verticalAlign=middle;resizable=0;points=[];autosize=1;strokeColor=none;fillColor=none;" vertex="1" parent="1">
          <mxGeometry x="1260" y="418" width="60" height="30" as="geometry" />
        </mxCell>
        <mxCell id="rmX3BGi-3fITCv1f9dis-143" value="TRUE" style="text;html=1;align=center;verticalAlign=middle;resizable=0;points=[];autosize=1;strokeColor=none;fillColor=none;" vertex="1" parent="1">
          <mxGeometry x="1390" y="48" width="60" height="30" as="geometry" />
        </mxCell>
        <mxCell id="rmX3BGi-3fITCv1f9dis-144" value="false" style="text;html=1;align=center;verticalAlign=middle;resizable=0;points=[];autosize=1;strokeColor=none;fillColor=none;" vertex="1" parent="1">
          <mxGeometry x="1248" y="-12" width="50" height="30" as="geometry" />
        </mxCell>
      </root>
    </mxGraphModel>
  </diagram>
</mxfile>
